<svg width="31" height="28" viewBox="0 0 31 28" fill="none" xmlns="http://www.w3.org/2000/svg">
<g filter="url(#filter0_i_117_86)">
<path d="M27.5122 15.7199L16.9004 26.1267C16.1226 26.8894 14.8774 26.8894 14.0996 26.1267L3.48781 15.7199C0.170731 12.4669 0.170731 7.19274 3.48781 3.93974C6.80488 0.686752 12.1829 0.686752 15.5 3.93974C18.8171 0.686752 24.1951 0.686752 27.5122 3.93974C30.8293 7.19274 30.8293 12.4669 27.5122 15.7199Z" fill="white"/>
</g>
<path d="M27.5122 15.7199L16.9004 26.1267C16.1226 26.8894 14.8774 26.8894 14.0996 26.1267L3.48781 15.7199C0.170731 12.4669 0.170731 7.19274 3.48781 3.93974C6.80488 0.686752 12.1829 0.686752 15.5 3.93974C18.8171 0.686752 24.1951 0.686752 27.5122 3.93974C30.8293 7.19274 30.8293 12.4669 27.5122 15.7199Z" stroke="white" stroke-width="2" stroke-linecap="round" stroke-linejoin="round"/>
<defs>
<filter id="filter0_i_117_86" x="0" y="0.5" width="31" height="27.1987" filterUnits="userSpaceOnUse" color-interpolation-filters="sRGB">
<feFlood flood-opacity="0" result="BackgroundImageFix"/>
<feBlend mode="normal" in="SourceGraphic" in2="BackgroundImageFix" result="shape"/>
<feColorMatrix in="SourceAlpha" type="matrix" values="0 0 0 0 0 0 0 0 0 0 0 0 0 0 0 0 0 0 127 0" result="hardAlpha"/>
<feOffset/>
<feGaussianBlur stdDeviation="20"/>
<feComposite in2="hardAlpha" operator="arithmetic" k2="-1" k3="1"/>
<feColorMatrix type="matrix" values="0 0 0 0 1 0 0 0 0 1 0 0 0 0 1 0 0 0 0.25 0"/>
<feBlend mode="normal" in2="shape" result="effect1_innerShadow_117_86"/>
</filter>
</defs>
</svg>
