<svg width="6" height="11" viewBox="0 0 6 11" fill="none" xmlns="http://www.w3.org/2000/svg">
<path d="M5.85184 10.8537C5.68098 11.0245 5.41702 11.0463 5.22294 10.9181L5.14481 10.8537L0.144812 5.85367L0.0803592 5.77555C0.0454828 5.72274 0.0227363 5.66453 0.0100467 5.60465C0.00798772 5.59499 0.00762198 5.5851 0.0061404 5.57535C0.00304947 5.55486 0.00082024 5.53451 0.000281027 5.51383C4.80724e-06 5.50371 -5.43396e-05 5.49368 0.000281027 5.48356C0.000922148 5.46488 0.00244286 5.44642 0.00516384 5.42789C0.00722128 5.41378 0.00971023 5.39983 0.0129763 5.3859C0.0175114 5.36664 0.0237133 5.34798 0.0305545 5.32926C0.0332721 5.32181 0.0352832 5.31414 0.038367 5.3068C0.0463109 5.28792 0.0563275 5.2701 0.0666873 5.25211C0.0881644 5.2148 0.112912 5.17854 0.144812 5.14664L5.14481 0.146643L5.22294 0.0821902C5.41702 -0.0459739 5.68098 -0.0242204 5.85184 0.146643C6.02271 0.317507 6.04446 0.581471 5.9163 0.77555L5.85184 0.853675L1.20536 5.50016L5.85184 10.1466L5.9163 10.2248C6.04446 10.4188 6.02271 10.6828 5.85184 10.8537Z" fill="white" fill-opacity="0.65"/>
</svg>
