<svg width="20" height="20" viewBox="0 0 20 20" fill="none" xmlns="http://www.w3.org/2000/svg">
<path d="M1 3C1 1.89543 1.89543 1 3 1H5.42857C6.53314 1 7.42857 1.89543 7.42857 3V17C7.42857 18.1046 6.53314 19 5.42857 19H3C1.89543 19 1 18.1046 1 17V3Z" stroke="white" stroke-width="2" stroke-linejoin="round"/>
<path d="M12.5714 3C12.5714 1.89543 13.4668 1 14.5714 1H17C18.1046 1 19 1.89543 19 3V17C19 18.1046 18.1046 19 17 19H14.5714C13.4668 19 12.5714 18.1046 12.5714 17V3Z" stroke="white" stroke-width="2" stroke-linejoin="round"/>
</svg>
