<svg width="125" height="25" viewBox="0 0 125 25" fill="none" xmlns="http://www.w3.org/2000/svg">
<path d="M16.43 20.38C16.43 21.22 16.22 21.99 15.8 22.69C15.38 23.39 14.82 23.95 14.12 24.37C13.42 24.79 12.65 25 11.81 25H5.09C4.25 25 3.46833 24.79 2.745 24.37C2.045 23.95 1.485 23.39 1.065 22.69C0.645 21.99 0.435 21.22 0.435 20.38V19.33C0.435 18.8867 0.586667 18.5133 0.89 18.21C1.21667 17.8833 1.60167 17.72 2.045 17.72H3.025C3.445 17.72 3.80667 17.8833 4.11 18.21C4.43667 18.5133 4.6 18.8867 4.6 19.33V20.38C4.6 20.4967 4.64667 20.6133 4.74 20.73C4.85667 20.8233 4.97333 20.87 5.09 20.87H11.81C11.9267 20.87 12.0317 20.8233 12.125 20.73C12.2183 20.6133 12.265 20.4967 12.265 20.38V17.195C12.265 16.9383 12.1483 16.775 11.915 16.705L3.515 13.555C2.58167 13.2283 1.835 12.6567 1.275 11.84C0.715 11.0233 0.435 10.125 0.435 9.145V5.995C0.435 5.13167 0.645 4.35 1.065 3.65C1.485 2.95 2.045 2.39 2.745 1.97C3.46833 1.55 4.25 1.34 5.09 1.34H11.81C12.65 1.34 13.42 1.55 14.12 1.97C14.82 2.39 15.38 2.95 15.8 3.65C16.22 4.35 16.43 5.13167 16.43 5.995V6.94C16.43 7.38333 16.2667 7.75667 15.94 8.06C15.6367 8.36333 15.2633 8.515 14.82 8.515H13.875C13.4317 8.515 13.0467 8.36333 12.72 8.06C12.4167 7.75667 12.265 7.38333 12.265 6.94V5.995C12.265 5.66833 12.1133 5.505 11.81 5.505H5.09C4.97333 5.505 4.85667 5.55167 4.74 5.645C4.64667 5.73833 4.6 5.855 4.6 5.995V9.145C4.6 9.425 4.71667 9.6 4.95 9.67L13.385 12.82C14.295 13.1467 15.03 13.7183 15.59 14.535C16.15 15.3517 16.43 16.2383 16.43 17.195V20.38ZM35.2972 20.38C35.2972 21.22 35.0872 21.99 34.6672 22.69C34.2472 23.39 33.6872 23.95 32.9872 24.37C32.2872 24.79 31.5172 25 30.6772 25H23.9572C23.1172 25 22.3355 24.79 21.6122 24.37C20.9122 23.95 20.3522 23.39 19.9322 22.69C19.5122 21.99 19.3022 21.22 19.3022 20.38V5.995C19.3022 5.13167 19.5122 4.35 19.9322 3.65C20.3522 2.95 20.9122 2.39 21.6122 1.97C22.3355 1.55 23.1172 1.34 23.9572 1.34H30.6772C31.5172 1.34 32.2872 1.55 32.9872 1.97C33.6872 2.39 34.2472 2.95 34.6672 3.65C35.0872 4.35 35.2972 5.13167 35.2972 5.995V20.38ZM31.1322 20.38V5.995C31.1322 5.66833 30.9805 5.505 30.6772 5.505H23.9572C23.8405 5.505 23.7239 5.55167 23.6072 5.645C23.5139 5.73833 23.4672 5.855 23.4672 5.995V20.38C23.4672 20.4967 23.5139 20.6133 23.6072 20.73C23.7239 20.8233 23.8405 20.87 23.9572 20.87H30.6772C30.7939 20.87 30.8989 20.8233 30.9922 20.73C31.0855 20.6133 31.1322 20.4967 31.1322 20.38ZM54.1644 20.38C54.1644 21.22 53.9544 21.99 53.5344 22.69C53.1144 23.39 52.5544 23.95 51.8544 24.37C51.1544 24.79 50.3844 25 49.5444 25H42.8244C41.9844 25 41.2027 24.79 40.4794 24.37C39.7794 23.95 39.2194 23.39 38.7994 22.69C38.3794 21.99 38.1694 21.22 38.1694 20.38V19.33C38.1694 18.8867 38.321 18.5133 38.6244 18.21C38.951 17.8833 39.336 17.72 39.7794 17.72H40.7594C41.1794 17.72 41.541 17.8833 41.8444 18.21C42.171 18.5133 42.3344 18.8867 42.3344 19.33V20.38C42.3344 20.4967 42.381 20.6133 42.4744 20.73C42.591 20.8233 42.7077 20.87 42.8244 20.87H49.5444C49.661 20.87 49.766 20.8233 49.8594 20.73C49.9527 20.6133 49.9994 20.4967 49.9994 20.38V17.195C49.9994 16.9383 49.8827 16.775 49.6494 16.705L41.2494 13.555C40.316 13.2283 39.5694 12.6567 39.0094 11.84C38.4494 11.0233 38.1694 10.125 38.1694 9.145V5.995C38.1694 5.13167 38.3794 4.35 38.7994 3.65C39.2194 2.95 39.7794 2.39 40.4794 1.97C41.2027 1.55 41.9844 1.34 42.8244 1.34H49.5444C50.3844 1.34 51.1544 1.55 51.8544 1.97C52.5544 2.39 53.1144 2.95 53.5344 3.65C53.9544 4.35 54.1644 5.13167 54.1644 5.995V6.94C54.1644 7.38333 54.001 7.75667 53.6744 8.06C53.371 8.36333 52.9977 8.515 52.5544 8.515H51.6094C51.166 8.515 50.781 8.36333 50.4544 8.06C50.151 7.75667 49.9994 7.38333 49.9994 6.94V5.995C49.9994 5.66833 49.8477 5.505 49.5444 5.505H42.8244C42.7077 5.505 42.591 5.55167 42.4744 5.645C42.381 5.73833 42.3344 5.855 42.3344 5.995V9.145C42.3344 9.425 42.451 9.6 42.6844 9.67L51.1194 12.82C52.0294 13.1467 52.7644 13.7183 53.3244 14.535C53.8844 15.3517 54.1644 16.2383 54.1644 17.195V20.38ZM72.1916 3.895C72.1916 4.33833 72.0282 4.72333 71.7016 5.05C71.3982 5.35333 71.0366 5.505 70.6166 5.505H61.5866C61.3066 5.505 61.1666 5.65667 61.1666 5.96V10.615C61.1666 10.9417 61.3066 11.105 61.5866 11.105H69.3566C69.8232 11.105 70.2082 11.2567 70.5116 11.56C70.8149 11.8633 70.9666 12.2367 70.9666 12.68V13.66C70.9666 14.1033 70.8149 14.4883 70.5116 14.815C70.2082 15.1183 69.8232 15.27 69.3566 15.27H61.5866C61.3066 15.27 61.1666 15.41 61.1666 15.69V23.39C61.1666 23.8333 61.0032 24.2183 60.6766 24.545C60.3732 24.8483 59.9999 25 59.5566 25H58.5766C58.1566 25 57.7832 24.8483 57.4566 24.545C57.1532 24.2183 57.0016 23.8333 57.0016 23.39V2.95C57.0016 2.48333 57.1532 2.09833 57.4566 1.795C57.7832 1.49166 58.1566 1.34 58.5766 1.34H70.6166C71.0366 1.34 71.3982 1.49166 71.7016 1.795C72.0282 2.09833 72.1916 2.48333 72.1916 2.95V3.895ZM80.2651 3.58C80.2651 4.30333 79.9967 4.93333 79.4601 5.47C78.9467 5.98333 78.3401 6.24 77.6401 6.24C76.9167 6.24 76.2867 5.98333 75.7501 5.47C75.2367 4.93333 74.9801 4.30333 74.9801 3.58C74.9801 2.88 75.2367 2.27333 75.7501 1.76C76.2867 1.22333 76.9167 0.954999 77.6401 0.954999C78.3401 0.954999 78.9467 1.22333 79.4601 1.76C79.9967 2.27333 80.2651 2.88 80.2651 3.58ZM79.7051 23.39C79.7051 23.8333 79.5417 24.2183 79.2151 24.545C78.9117 24.8483 78.5384 25 78.0951 25H77.1501C76.7067 25 76.3217 24.8483 75.9951 24.545C75.6917 24.2183 75.5401 23.8333 75.5401 23.39V8.865C75.5401 8.42167 75.6917 8.04833 75.9951 7.745C76.3217 7.41833 76.7067 7.255 77.1501 7.255H78.0951C78.5384 7.255 78.9117 7.41833 79.2151 7.745C79.5417 8.04833 79.7051 8.42167 79.7051 8.865V23.39ZM89.4507 23.39C89.4507 23.8333 89.2873 24.2183 88.9607 24.545C88.6573 24.8483 88.284 25 87.8407 25H86.9657C85.8923 25 84.9707 24.6267 84.2007 23.88C83.4307 23.11 83.0457 22.1767 83.0457 21.08V2.95C83.0457 2.48333 83.1973 2.09833 83.5007 1.795C83.8273 1.49166 84.2123 1.34 84.6557 1.34H85.6357C86.079 1.34 86.4523 1.49166 86.7557 1.795C87.0823 2.09833 87.2457 2.48333 87.2457 2.95V20.415C87.2457 20.7183 87.3857 20.87 87.6657 20.87H87.8407C88.284 20.87 88.6573 21.0217 88.9607 21.325C89.2873 21.6283 89.4507 22.0133 89.4507 22.48V23.39ZM109.252 23.39C109.252 23.8333 109.088 24.2183 108.762 24.545C108.458 24.8483 108.085 25 107.642 25H106.662C106.218 25 105.833 24.8483 105.507 24.545C105.203 24.2183 105.052 23.8333 105.052 23.39V11.525C105.052 11.1983 104.9 11.035 104.597 11.035H103.232C102.952 11.035 102.812 11.1983 102.812 11.525V23.39C102.812 23.8333 102.648 24.2183 102.322 24.545C102.018 24.8483 101.645 25 101.202 25H100.257C99.8133 25 99.4283 24.8483 99.1016 24.545C98.7983 24.2183 98.6466 23.8333 98.6466 23.39V11.525C98.6466 11.1983 98.5066 11.035 98.2266 11.035H96.8616C96.5583 11.035 96.4066 11.1983 96.4066 11.525V23.39C96.4066 23.8333 96.2433 24.2183 95.9166 24.545C95.6133 24.8483 95.24 25 94.7966 25H93.8166C93.3733 25 92.9883 24.8483 92.6616 24.545C92.3583 24.2183 92.2066 23.8333 92.2066 23.39V10.79C92.2066 10.0667 92.3816 9.41333 92.7316 8.83C93.105 8.22333 93.5833 7.745 94.1666 7.395C94.75 7.045 95.4033 6.87 96.1266 6.87H98.8916C99.405 6.87 99.8716 6.975 100.292 7.185C100.572 7.255 100.863 7.255 101.167 7.185C101.587 6.975 102.053 6.87 102.567 6.87H105.332C106.055 6.87 106.708 7.045 107.292 7.395C107.875 7.745 108.342 8.22333 108.692 8.83C109.065 9.41333 109.252 10.0667 109.252 10.79V23.39ZM124.735 21.08C124.735 22.1767 124.35 23.11 123.58 23.88C122.833 24.6267 121.923 25 120.85 25H115.985C114.912 25 113.99 24.6267 113.22 23.88C112.45 23.11 112.065 22.1767 112.065 21.08V19.645C112.065 19.2017 112.217 18.8283 112.52 18.525C112.847 18.1983 113.232 18.035 113.675 18.035H114.655C115.098 18.035 115.472 18.1983 115.775 18.525C116.078 18.8283 116.23 19.2017 116.23 19.645V20.415C116.23 20.7183 116.393 20.87 116.72 20.87H120.115C120.232 20.87 120.337 20.8233 120.43 20.73C120.547 20.6367 120.605 20.5317 120.605 20.415V19.12C120.605 18.9333 120.512 18.805 120.325 18.735L115.25 17.125C114.317 16.7983 113.547 16.2383 112.94 15.445C112.357 14.6517 112.065 13.7533 112.065 12.75V10.79C112.065 10.0667 112.24 9.41333 112.59 8.83C112.963 8.24667 113.442 7.78 114.025 7.43C114.608 7.05667 115.262 6.87 115.985 6.87H120.85C121.573 6.87 122.227 7.05667 122.81 7.43C123.393 7.78 123.86 8.24667 124.21 8.83C124.56 9.41333 124.735 10.0667 124.735 10.79V12.19C124.735 12.6333 124.583 13.0183 124.28 13.345C123.977 13.6483 123.603 13.8 123.16 13.8H122.18C121.737 13.8 121.363 13.6483 121.06 13.345C120.757 13.0183 120.605 12.6333 120.605 12.19V11.525C120.605 11.385 120.547 11.2683 120.43 11.175C120.337 11.0817 120.232 11.035 120.115 11.035H116.72C116.393 11.035 116.23 11.1983 116.23 11.525V12.75C116.23 12.9833 116.323 13.1233 116.51 13.17L121.585 14.78C122.542 15.0833 123.3 15.6317 123.86 16.425C124.443 17.2183 124.735 18.1167 124.735 19.12V21.08Z" fill="white"/>
</svg>
