<svg width="20" height="19" viewBox="0 0 20 19" fill="none" xmlns="http://www.w3.org/2000/svg">
<path d="M11.9973 4.37061C11.9973 2.65827 9.98564 1.73774 8.68984 2.85712L5.96209 5.21349C5.5988 5.52732 5.13475 5.7 4.65468 5.70001L3.49998 5.70001C2.11928 5.70002 1 6.81931 1 8.20001V10.8C1 12.1807 2.11929 13.3 3.5 13.3H4.65471C5.13478 13.3 5.59884 13.4727 5.96213 13.7865L8.68984 16.1429C9.98564 17.2623 11.9973 16.3417 11.9973 14.6294V9.5V4.37061Z" stroke="white" stroke-width="2"/>
<path d="M14.7466 12.2497C15.322 11.4839 15.663 10.532 15.663 9.50042C15.663 8.46887 15.322 7.51693 14.7466 6.7511" stroke="white" stroke-width="2" stroke-linecap="round"/>
<path d="M16.5796 14.9991C17.7305 13.4674 18.4125 11.5636 18.4125 9.50047C18.4125 7.43737 17.7305 5.5335 16.5796 4.00183" stroke="white" stroke-width="2" stroke-linecap="round"/>
</svg>
